<svg xmlns="http://www.w3.org/2000/svg" xmlns:xlink="http://www.w3.org/1999/xlink" width="450" height="278.118" viewBox="0 0 450 278.118"><defs><style>.a{opacity:0.576;fill:url(#a);}.b{opacity:0.9;fill:url(#b);}.c{opacity:0.855;fill:url(#c);}.d{fill:#0a203b;}.e{fill:#c7c7c8;}.f{fill:#fff;}.g{fill:#ddddde;}.h,.k{fill:#dcdcdd;}.h{opacity:0.675;}.i{opacity:0.15;fill:url(#d);}.j{fill:#b7b7b7;}.l{fill:#e7e7e8;}.m{fill:#4d4d4d;}.n{fill:#ff6f6f;}</style><radialGradient id="a" cx="0.5" cy="0.5" r="0.5" gradientUnits="objectBoundingBox"><stop offset="0" stop-color="#c7c7c8" stop-opacity="0.71"/><stop offset="1" stop-color="#ddddde" stop-opacity="0"/></radialGradient><linearGradient id="b" x1="0.747" y1="0.203" x2="0" y2="0.393" gradientUnits="objectBoundingBox"><stop offset="0" stop-color="#dbe4f1" stop-opacity="0"/><stop offset="1" stop-color="#c7c7c8" stop-opacity="0.518"/></linearGradient><linearGradient id="c" x1="0.521" y1="0.272" x2="1" y2="0.393" gradientUnits="objectBoundingBox"><stop offset="0" stop-color="#dbe4f1" stop-opacity="0"/><stop offset="1" stop-color="#c7c7c8" stop-opacity="0.482"/></linearGradient><radialGradient id="d" cx="0.5" cy="0.5" r="0.5" gradientUnits="objectBoundingBox"><stop offset="0" stop-color="#727272"/><stop offset="1" stop-color="#cbd9ee" stop-opacity="0"/></radialGradient></defs><g transform="translate(0 0.118)"><ellipse class="a" cx="63" cy="8" rx="63" ry="8" transform="translate(158 262)"/><g transform="translate(4 1)"><g transform="translate(4 33)"><path class="b" d="M2639.414-199.864l0,231.392L2865,75.031l-20.3-274.777Z" transform="translate(-2423 165.746)"/><path class="c" d="M2863.758-199.746V31.526l-176.474,25.2L2639.34-199.746Z" transform="translate(-2647.34 165.746)"/></g><g transform="translate(-1463 535.503)"><path d="M5.835,10.273,79.907,0a3.054,3.054,0,0,1,3.054,3.054L81.715,111.191c.063,2.486-2.975,6.563-5.475,6.741L3.054,124.1A3.054,3.054,0,0,1,0,121.046L2.781,13.328A3.054,3.054,0,0,1,5.835,10.273Z" transform="translate(1706.488 -454.452) rotate(48)"/><path class="d" d="M5.835,10.273,79.907,0a3.054,3.054,0,0,1,3.054,3.054L81.455,111.911a6.165,6.165,0,0,1-6.024,5.684L3.054,124.1A3.054,3.054,0,0,1,0,121.046L2.781,13.328A3.054,3.054,0,0,1,5.835,10.273Z" transform="translate(1706.488 -456.743) rotate(48)"/><path class="e" d="M2076.8-429.738l-75.839,64.658,49,44.591,78.639-64.87Z" transform="translate(-376.238 -8.675)"/><path class="f" d="M2076.7-430.081l-75.638,64.93s15.716,16.233,28.546,23.725,29.693,9.832,46.565-.884,51.869-42.744,51.869-42.744Z" transform="translate(-376.262 -10.884)"/><path class="d" d="M3.054,4.947,37.394,0a3.054,3.054,0,0,1,3.054,3.054L40.187,14.4a3.054,3.054,0,0,1-3.054,3.054L3.3,21.832A3.054,3.054,0,0,1,.249,18.778L0,8A3.054,3.054,0,0,1,3.054,4.947Z" transform="translate(1721.953 -441.186) rotate(48)"/><path class="d" d="M3.054,4.947,37.394,0a3.054,3.054,0,0,1,3.054,3.054L40.187,14.4a3.054,3.054,0,0,1-3.054,3.054L3.3,21.832A3.054,3.054,0,0,1,.249,18.778L0,8A3.054,3.054,0,0,1,3.054,4.947Z" transform="translate(1721.953 -441.949) rotate(48)"/></g><g transform="translate(-10 -14)"><path class="f" d="M2592.494,263.491s9.979-1.826,24.476-6.086,20.113-11.228,20.113-11.228a133.644,133.644,0,0,0,20.467,18.252c11.729,8.324,26.451,15.046,26.451,15.046s-.792,6.831-30.43,9.428S2592.494,263.491,2592.494,263.491Z" transform="translate(-2483 -186.904)"/><path class="g" d="M2616.774,289.346s10.217,2.575,18.2,1.853a31.263,31.263,0,0,0,13.747-4.739s6.545,6.793,14.2,10.529a51.819,51.819,0,0,0,16.428,4.415,107.79,107.79,0,0,1-30.106,1.766C2633.395,301.7,2616.774,289.346,2616.774,289.346Z" transform="translate(-2491.962 -201.772)"/></g><g transform="translate(312.821 125.927) rotate(-8)"><path class="f" d="M2662.33,259.391a94.073,94.073,0,0,1-18.68-4.645,69.8,69.8,0,0,1-15.35-8.569,101.988,101.988,0,0,1-15.62,13.929,143.873,143.873,0,0,1-20.187,11.483s.6,5.213,23.224,7.2S2662.33,259.391,2662.33,259.391Z" transform="translate(-2592.493 -246.177)"/><path class="h" d="M2664.76,288.863a19.6,19.6,0,0,1-13.662,1.214c-8.043-2.008-10.491-3.617-10.491-3.617s-4.869,6.187-10.839,8.036-12.511,3.081-12.511,3.081,9.582,3.4,22.95,1.636S2664.76,288.863,2664.76,288.863Z" transform="translate(-2606.846 -267.064)"/></g></g><path class="i" d="M40.337,0C62.614,0,80.673,2.462,80.673,5.5S62.614,11,40.337,11,0,8.538,0,5.5,18.059,0,40.337,0Z" transform="translate(261 253)"/><g transform="matrix(0.839, 0.545, -0.545, 0.839, 296.825, 161.227)"><rect class="j" width="9.48" height="49.43" transform="translate(43.68 17.037) rotate(45)"/><rect class="e" width="6.771" height="49.43" transform="translate(44.159 17.516) rotate(45)"/><rect class="k" width="2.708" height="49.43" transform="translate(43.68 17.037) rotate(45)"/><path class="l" d="M3.909,0H5.555L9.48,6.094H0Z" transform="translate(47.989 12.728) rotate(45)"/><path class="m" d="M.849,0l.858,1.535H0Z" transform="translate(51.833 14.401) rotate(45)"/></g><g transform="translate(310.701 92.66) rotate(87)"><rect class="n" width="21.145" height="2.917" rx="1.458" transform="translate(37 75.614)"/><rect class="n" width="21.145" height="2.917" rx="1.458" transform="translate(49.031 66.5) rotate(90)"/></g></g></svg>